<svg id="Layer_1" data-name="Layer 1" xmlns="http://www.w3.org/2000/svg" viewBox="0 0 1000 1000"><defs><style>.cls-1{fill:#e87f0b;}.cls-2{fill:#c14100;}</style></defs><polygon class="cls-1" points="632.02 437.15 617.8 437.15 617.8 406.55 577.27 406.55 577.27 448.37 555.72 430.04 555.72 363 544.75 363 544.75 356.27 539.98 356.27 539.98 347.54 534.08 347.54 534.08 309.06 526.48 309.06 526.48 347.54 520.58 347.54 520.58 356.27 515.81 356.27 515.81 363 504.84 363 504.84 637.63 555.72 637.63 599.8 526.67 609.81 517.35 617.8 517.35 617.8 509.9 632.02 496.65 632.02 437.15"/><path class="cls-2" d="M656.71,515.08l-23.93,29L603,535.88l-10.35-29.1,23.93-26.84s-92.15-76.09-97.32-79.21-5-4.64-12.83-4.42-10.35,2.58-14.66,5.71S421,458.39,414.74,463.45c.32-5.82,1.61-13.9,4-24.68s2.58-10.61,5.44-18.11,10.67-15.84,14.33-21.34,7.33-6,6.58-4.25-4.42,9.16-6.41,11.58-12.29,17.46-12.18,19.78c6.3-1.78,17.29-3.72,26-19.08s7-25.7,6.15-38.31c-32,7.6-36.38,24.9-40.42,31.69s-5.12,18.8-5.28,19.61-.11,1.67-1.56,1.73-1.23-1.2-1.23-1.2c-.93-19-11.56-33.36-26.09-45.47s-44.54-9.13-44.54-9.13.56,17.89,11.93,40.81,47.14,26.84,47.14,26.84a66.29,66.29,0,0,0-2.68-8.4c-1.08-2.16-11.48-17.95-13.2-19.78s-13.64-14.77-16.6-16.92-14.5-13.69-6.47-9.54,14.12,8,28.51,22.58,15.2,25.7,18.11,44.3-12.45,36-12.45,36l-36.7,30.72h24.73s-.8,48.5-.64,82.45c-20.53,3.39-38,20.1-38,20.1,16-2.26,33.79,1.89,43.82,6.57,32.82,16.33,30.55,13.26,43,15.2-8.24-6-35.4-29.1-34.27-29.1,12.37,0,28,2.1,36.86,5s45.11,19.56,51.57,23.12,26.68,9.7,26.68,9.7-14.39,4.21-23.12,4.53-22.47-4.69-31-3.23A117.39,117.39,0,0,0,490,661.13c14.88,3.35,46.89-2.7,68.71-12.88s31.69-29.75,34.6-33.79l21.34-29.75s1,26.19-2.26,40.25-24.58,31.85-29.75,35.41-29.59,15.76-39,18.35S505,683,487.19,682.2s-44.7-13.58-53.43-17.3-34.84-21.75-42.95-24.25c16.6,37.72,77.82,55.61,89,57.77s57.55,5,96.79-16.17,48.28-49.58,52-61.11,1.07-44.3,1.18-48.07c14.88-4.53,22.64-15.52,28.46-28.35S656.71,515.08,656.71,515.08Zm-81.05,59.28c-4,10.13-30.08,59-33.42,60.9s-9.7,3.23-13.79,1.61-23.28-9.37-33.74-14.65-23.6-13.26-42.57-20.59S398.25,591,398.35,591.07s0-92.8,0-92.8L502.58,412.8s2.16-2.16,4.31-2.05S540,437.37,540,437.37l56.91,48s-20.8,12.08-23.82,17-10.13,23-1.29,43S579.64,564.23,575.66,574.36Z"/><rect class="cls-2" x="463.35" y="511.63" width="36.54" height="36.54"/><rect class="cls-2" x="507.33" y="511.63" width="36.54" height="36.54"/><rect class="cls-2" x="463.35" y="553.72" width="36.54" height="36.54"/><rect class="cls-2" x="507.33" y="553.72" width="36.54" height="36.54"/><polygon class="cls-1" points="215.82 404.26 244.18 400.31 257 374.71 269.52 400.46 297.82 404.75 277.21 424.61 281.88 452.85 256.62 439.38 231.2 452.55 236.21 424.37 215.82 404.26"/><polygon class="cls-1" points="200.75 507.13 226.04 493.73 229.33 465.29 249.9 485.2 277.97 479.54 265.39 505.26 279.44 530.2 251.09 526.18 231.71 547.25 226.78 519.05 200.75 507.13"/><polygon class="cls-1" points="221.76 608.96 240.95 587.71 234.31 559.86 260.45 571.54 284.89 556.62 281.86 585.09 303.6 603.73 275.59 609.64 264.58 636.07 250.3 611.26 221.76 608.96"/><polygon class="cls-1" points="784.17 592.64 755.82 596.59 743 622.19 730.48 596.44 702.17 592.16 722.79 572.3 718.12 544.05 743.38 557.52 768.8 544.35 763.79 572.54 784.17 592.64"/><polygon class="cls-1" points="799.25 489.77 773.96 503.18 770.67 531.62 750.1 511.7 722.03 517.36 734.61 491.64 720.56 466.7 748.91 470.72 768.29 449.65 773.22 477.85 799.25 489.77"/><polygon class="cls-1" points="778.24 387.94 759.05 409.19 765.68 437.04 739.55 425.37 715.11 440.28 718.14 411.81 696.4 393.18 724.41 387.26 735.42 360.83 749.7 385.64 778.24 387.94"/><polygon class="cls-2" points="291 304.91 318.85 328.32 271.82 327.74 264.44 336.53 310.35 375.1 319.16 364.61 291.3 341.19 338.39 341.72 345.72 332.99 299.81 294.42 291 304.91"/><polygon class="cls-2" points="372.92 299.76 365.83 287.83 389.75 273.6 384.24 264.32 360.31 278.56 353.65 267.36 380.75 251.25 375.05 241.68 336.11 264.84 366.76 316.38 406.66 292.64 400.97 283.07 372.92 299.76"/><path class="cls-2" d="M465.49,249.85a15.2,15.2,0,0,0-6-3.7,28.7,28.7,0,0,0-7.31-1.38c-2.59-.16-5.16-.23-7.71-.23s-4.89,0-7-.12a14.72,14.72,0,0,1-5.35-1.09,4.43,4.43,0,0,1-2.68-3.2,5.62,5.62,0,0,1,.3-3.63,7.7,7.7,0,0,1,3-3.21,19.56,19.56,0,0,1,6.21-2.42,31.06,31.06,0,0,1,8.27-.73,35.91,35.91,0,0,1,9,1.56L458,220.46a32,32,0,0,0-10.33-1.68A46.55,46.55,0,0,0,436.51,220q-8.26,1.92-13.15,5.66a19,19,0,0,0-6.64,8.49,16.69,16.69,0,0,0-.59,9.77,14.74,14.74,0,0,0,3.67,7.24,15.16,15.16,0,0,0,6,3.7,31.65,31.65,0,0,0,7.33,1.46q3.92.32,7.72.27t7,.12a15.52,15.52,0,0,1,5.36,1.13,4.5,4.5,0,0,1,2.7,3.29,5.05,5.05,0,0,1-.41,3.52,7.74,7.74,0,0,1-3.11,3.06,22.21,22.21,0,0,1-6.28,2.29,33.27,33.27,0,0,1-10.79.71,34.16,34.16,0,0,1-9.9-2.31l-2.22,11.25a32.22,32.22,0,0,0,11.48,2.47,49,49,0,0,0,13.87-1.25q8.34-1.94,13.22-5.72a19.68,19.68,0,0,0,6.69-8.5,16.16,16.16,0,0,0,.65-9.65A14.44,14.44,0,0,0,465.49,249.85Z"/><polygon class="cls-2" points="491.13 224.15 510.28 225.34 507.26 273.9 521.12 274.76 524.13 226.2 543.28 227.38 543.98 216.1 491.83 212.86 491.13 224.15"/><polygon class="cls-2" points="619.76 251.37 623.69 240.95 581.28 224.97 560.14 281.09 573.13 285.98 580.83 265.54 606.8 275.32 610.73 264.9 584.75 255.12 590.34 240.29 619.76 251.37"/><rect class="cls-2" x="614.73" y="282.1" width="59.96" height="13.88" transform="translate(40.15 654.7) rotate(-55.32)"/><polygon class="cls-2" points="733.75 333.65 723.86 322.27 700.35 324.83 705.98 301.72 695.64 289.82 687.23 325.01 649.66 328.33 660.11 340.35 685.18 337.43 678.94 362.01 689.45 374.1 698.17 336.87 733.75 333.65"/><polygon class="cls-2" points="343.32 677.48 307.56 686.12 316.91 650.37 310.1 643.38 273.61 678.94 281.33 686.87 302.76 665.99 295.6 693.79 299.31 697.6 327.82 690.76 305.96 712.15 313.68 720.08 350.08 684.41 343.32 677.48"/><path class="cls-2" d="M373,717.2q-1.86-6.24-9.36-11.12a34.64,34.64,0,0,0-8.36-4,24.47,24.47,0,0,0-8.37-1.28l-.91,8.87a16.68,16.68,0,0,1,5.75.57,20.07,20.07,0,0,1,5.69,2.53q3.84,2.51,4.59,5.42a7.32,7.32,0,0,1-1.23,6h0l-7.57-4.92a26.12,26.12,0,0,0-8.93-4,11.08,11.08,0,0,0-6.78.49,11.54,11.54,0,0,0-6.6,10.21,12,12,0,0,0,1.89,6.31,18,18,0,0,0,5.74,5.59,16.19,16.19,0,0,0,8.15,3,10,10,0,0,0,4.84-1l-2.67,4.09,8.91,5.8L370,730.94Q374.84,723.44,373,717.2ZM345.08,733a7.71,7.71,0,0,1-3.24-3.62,4.12,4.12,0,0,1,.45-3.84,4.22,4.22,0,0,1,3-1.93q2-.29,5.32,1.9l6.53,4.24L355,733.11h0a7.67,7.67,0,0,1-4.91,1.54A9.82,9.82,0,0,1,345.08,733Z"/><path class="cls-2" d="M395.07,718.25a7.1,7.1,0,0,0,5.43.54,6.25,6.25,0,0,0,3.76-3.41,5.55,5.55,0,0,0,.13-4.82,7.5,7.5,0,0,0-3.86-3.74,7.25,7.25,0,0,0-5.38-.56,6.18,6.18,0,0,0-3.9,8.15A7.2,7.2,0,0,0,395.07,718.25Z"/><rect class="cls-2" x="364.68" y="735.16" width="39.16" height="11.36" transform="translate(-449.86 767.93) rotate(-64.45)"/><path class="cls-2" d="M436.59,740.89a18.12,18.12,0,0,0-7.39-4.27A18.65,18.65,0,0,0,420,736a14.47,14.47,0,0,0-4.76,1.79l1.4-4.45-10.35-3.25-11.73,37.36,10.84,3.4,5.8-18.47a13,13,0,0,1,2.93-5.34,7.85,7.85,0,0,1,4.23-2.29,10.23,10.23,0,0,1,5,.37,7.59,7.59,0,0,1,4.91,3.91q1.31,2.78-.11,7.29L422,776l10.83,3.4L439.5,758a20.1,20.1,0,0,0,.91-10A13.43,13.43,0,0,0,436.59,740.89Z"/><path class="cls-2" d="M467.41,736.56l-11.24-1.63-1.24,8.58-6-.87-1.25,8.65,6,.86-2.42,16.79q-1,6.91,2.31,11t10.16,5a20.25,20.25,0,0,0,5.09.11,12.15,12.15,0,0,0,4.41-1.24l-1.88-8.36a7.35,7.35,0,0,1-4.75.79,4.74,4.74,0,0,1-3.33-1.84,5.23,5.23,0,0,1-.75-4l2.4-16.64,9.65,1.39,1.25-8.65-9.65-1.39Z"/><path class="cls-2" d="M510.94,749.23a23.37,23.37,0,0,0-21.07.2,19.32,19.32,0,0,0-7.44,7.16,19.92,19.92,0,0,0-2.7,10.45,19,19,0,0,0,10.64,17.51,27.65,27.65,0,0,0,21.15.92,17.54,17.54,0,0,0,6.75-4.71l-6.06-6.53a13.52,13.52,0,0,1-4.32,2.85,15,15,0,0,1-5.49,1,13.45,13.45,0,0,1-6.08-1.26,9.18,9.18,0,0,1-4-3.7,10.39,10.39,0,0,1-1.12-2.87l29.61-.08c.05-.49.09-1,.14-1.57s.07-1,.07-1.49a21,21,0,0,0-2.72-10.88A18.34,18.34,0,0,0,510.94,749.23Zm-15.41,7.47a10,10,0,0,1,5.13-1.29,9.85,9.85,0,0,1,5.1,1.26,9,9,0,0,1,3.43,3.52,10,10,0,0,1,1.09,3.34l-19.25.06a10.59,10.59,0,0,1,1.05-3.32A8.85,8.85,0,0,1,495.53,756.7Z"/><path class="cls-2" d="M565.58,746.54a13.47,13.47,0,0,0-6.74-4.5,18.32,18.32,0,0,0-8.53-.28,18.71,18.71,0,0,0-8.41,3.74,14.65,14.65,0,0,0-3.35,3.83l-.87-4.58-10.65,2,7.28,38.48,11.15-2.11-3.6-19a13.08,13.08,0,0,1,.07-6.08,7.78,7.78,0,0,1,2.65-4,10.16,10.16,0,0,1,4.55-2,7.57,7.57,0,0,1,6.18,1.13c1.63,1.22,2.75,3.38,3.33,6.48l3.85,20.31,11.15-2.11-4.17-22A20,20,0,0,0,565.58,746.54Z"/><path class="cls-2" d="M603.84,729.13q-6.15-2.13-14.49,1.14a34.65,34.65,0,0,0-8.08,4.51,24.65,24.65,0,0,0-5.91,6.07l6.7,5.9a16.12,16.12,0,0,1,3.8-4.35,19.71,19.71,0,0,1,5.37-3.16q4.26-1.68,7.08-.59a7.32,7.32,0,0,1,4.14,4.47h0l-8.4,3.3a26.22,26.22,0,0,0-8.47,4.92,11.18,11.18,0,0,0-3.54,5.81,11.56,11.56,0,0,0,4.47,11.31,12,12,0,0,0,6.23,2.12,17.92,17.92,0,0,0,7.89-1.41,16.18,16.18,0,0,0,7.14-4.92,9.86,9.86,0,0,0,2-4.53l1.78,4.55,9.89-3.89-8.16-20.8Q610,731.25,603.84,729.13Zm.89,28.77a9.71,9.71,0,0,1-4.25,3.12,7.76,7.76,0,0,1-4.83.53,4.08,4.08,0,0,1-2.86-2.6,4.19,4.19,0,0,1,.19-3.59c.61-1.18,2.15-2.25,4.64-3.23l7.25-2.84,1.46,3.72h0A7.68,7.68,0,0,1,604.73,757.9Z"/><path class="cls-2" d="M651,705.84a13.48,13.48,0,0,0-7.92-1.74,18.31,18.31,0,0,0-8,2.86,18.66,18.66,0,0,0-6.47,6.55,14.61,14.61,0,0,0-1.72,4.78l-2.48-3.95-9.19,5.76L636,753.28l9.62-6-10.29-16.4a13,13,0,0,1-2.15-5.69,7.75,7.75,0,0,1,1-4.71,10.18,10.18,0,0,1,3.5-3.53,7.56,7.56,0,0,1,6.16-1.2c2,.54,3.8,2.14,5.47,4.81l11,17.52,9.62-6L658,713A20,20,0,0,0,651,705.84Z"/><path class="cls-2" d="M693.57,692.69a9.89,9.89,0,0,1,0,5.62,10.13,10.13,0,0,1-2.81,4.31,10.48,10.48,0,0,1-4.75,2.57,9.4,9.4,0,0,1-5.22-.25,13.24,13.24,0,0,1-7.87-8.58,9.44,9.44,0,0,1,.2-5.22,10.47,10.47,0,0,1,3-4.51,10,10,0,0,1,4.56-2.4,10.25,10.25,0,0,1,5.58.42l3.29-9.44a15.71,15.71,0,0,0-10-.87,21.6,21.6,0,0,0-9.69,5.38,24,24,0,0,0-6.57,9.53A19.79,19.79,0,0,0,687,715.16a23.93,23.93,0,0,0,10.06-5.73,21.56,21.56,0,0,0,6.19-9.18,15.82,15.82,0,0,0,0-10Z"/><path class="cls-2" d="M734.46,656.85l-8.88.77a13.28,13.28,0,0,1-.4,5.17,14.92,14.92,0,0,1-2.61,4.92,13.51,13.51,0,0,1-4.73,4,9.16,9.16,0,0,1-5.38.9,10.15,10.15,0,0,1-3-.87l18.11-23.43c-.35-.34-.74-.7-1.15-1.08s-.79-.7-1.13-1a21,21,0,0,0-10.26-4.52,18.22,18.22,0,0,0-10,1.51A23.38,23.38,0,0,0,692.29,660a19.5,19.5,0,0,0,1.08,10.27,20,20,0,0,0,6.6,8.55,19.53,19.53,0,0,0,9.9,4.15,19.25,19.25,0,0,0,10.45-1.8,25.21,25.21,0,0,0,9.27-7.7,24.94,24.94,0,0,0,4.44-8.43A17.65,17.65,0,0,0,734.46,656.85Zm-33,3.18a10.28,10.28,0,0,1,2.13-4.84,10,10,0,0,1,4.13-3.25,9.11,9.11,0,0,1,4.88-.55,10,10,0,0,1,3.31,1.2l-11.77,15.22a10.25,10.25,0,0,1-2-2.86A9,9,0,0,1,701.5,660Z"/></svg>